            <svg width="187" height="50" viewBox="0 0 87 18" fill="none" xmlns="http://www.w3.org/2000/svg">
                <path
                    d="M7.34022 6.368C6.95622 7.04 6.62022 7.712 6.33222 8.384L10.4362 16.904C9.92422 17.016 9.36422 17.056 8.75622 17.024C8.16422 16.992 7.61222 16.968 7.10022 16.952C6.76422 16.568 6.45222 16.112 6.16422 15.584C5.87622 15.04 5.59622 14.48 5.32422 13.904C5.06822 13.328 4.81222 12.76 4.55622 12.2C4.30022 11.64 4.04422 11.136 3.78822 10.688C3.77222 11.152 3.76422 11.656 3.76422 12.2C3.78022 12.728 3.79622 13.264 3.81222 13.808C3.82822 14.352 3.83622 14.888 3.83622 15.416C3.85222 15.944 3.86022 16.432 3.86022 16.88C3.63622 16.944 3.37222 16.984 3.06822 17C2.76422 17.032 2.44422 17.048 2.10822 17.048C1.77222 17.048 1.44422 17.032 1.12422 17C0.820219 16.968 0.564219 16.928 0.356219 16.88C0.228219 14.128 0.204219 11.368 0.284219 8.6C0.380219 5.816 0.420219 3.024 0.404219 0.223999C0.932219 0.207999 1.46822 0.215999 2.01222 0.248C2.57222 0.263999 3.10822 0.271999 3.62022 0.271999C3.65222 1.184 3.66022 2.144 3.64422 3.152C3.62822 4.16 3.63622 5.12 3.66822 6.032C3.66822 6.048 3.67622 6.04 3.69222 6.008C3.72422 5.96 3.75622 5.92 3.78822 5.888C4.12422 5.456 4.42822 5.008 4.70022 4.544C4.97222 4.08 5.22822 3.608 5.46822 3.128C5.72422 2.648 5.98022 2.168 6.23622 1.688C6.50822 1.208 6.81222 0.727999 7.14822 0.248C7.66022 0.279999 8.20422 0.279999 8.78022 0.248C9.35622 0.215999 9.90022 0.239999 10.4122 0.319999C10.2202 0.991999 9.94822 1.664 9.59622 2.336C9.26022 3.008 8.89222 3.68 8.49222 4.352C8.10822 5.024 7.72422 5.696 7.34022 6.368ZM52.0625 4.976C52.4625 4.992 52.9185 5.016 53.4305 5.048C53.4465 5.144 53.4545 5.24 53.4545 5.336C53.4705 5.432 53.4785 5.528 53.4785 5.624V5.864C53.4305 7.592 53.4385 9.296 53.5025 10.976C53.5665 12.64 53.5425 14.328 53.4305 16.04C53.4305 16.248 53.4225 16.456 53.4065 16.664C53.4065 16.872 53.3105 16.992 53.1185 17.024H52.8305C52.5745 17.024 52.3105 17.016 52.0385 17C51.7825 16.968 51.5265 16.952 51.2705 16.952C51.0945 16.952 50.9185 16.968 50.7425 17C50.5825 17.016 50.4145 17.024 50.2385 17.024C50.1265 16.992 50.0465 16.928 49.9985 16.832C49.9665 16.736 49.9505 16.624 49.9505 16.496C49.9505 16.32 49.9665 16.176 49.9985 16.064C50.0305 15.952 50.0465 15.816 50.0465 15.656C49.6625 16.04 49.1745 16.368 48.5825 16.64C48.0065 16.912 47.4385 17.048 46.8785 17.048C46.2545 17.048 45.7185 16.832 45.2705 16.4C44.8385 15.968 44.4785 15.432 44.1905 14.792C43.9025 14.152 43.6865 13.456 43.5425 12.704C43.4145 11.952 43.3505 11.256 43.3505 10.616C43.3505 9.816 43.4545 9.08 43.6625 8.408C43.8705 7.736 44.1505 7.16 44.5025 6.68C44.8705 6.184 45.3025 5.8 45.7985 5.528C46.2945 5.24 46.8225 5.088 47.3825 5.072C47.6705 5.072 47.9345 5.08 48.1745 5.096C48.4305 5.096 48.6625 5.136 48.8705 5.216C49.0785 5.28 49.2625 5.392 49.4225 5.552C49.5825 5.696 49.7185 5.904 49.8305 6.176C49.8145 5.92 49.8225 5.704 49.8545 5.528C49.9025 5.336 49.9265 5.144 49.9265 4.952C49.9265 4.936 49.9745 4.928 50.0705 4.928C50.1825 4.912 50.3025 4.912 50.4305 4.928C50.5585 4.928 50.6865 4.928 50.8145 4.928C50.9425 4.928 51.0305 4.928 51.0785 4.928C51.3505 4.944 51.6785 4.96 52.0625 4.976ZM47.1185 8.768C46.7505 9.072 46.5265 9.424 46.4465 9.824C46.3825 10.032 46.3425 10.248 46.3265 10.472C46.3105 10.68 46.3025 10.888 46.3025 11.096C46.3025 11.816 46.4865 12.432 46.8545 12.944C47.2385 13.44 47.7665 13.688 48.4385 13.688C48.8385 13.688 49.1345 13.624 49.3265 13.496C49.5345 13.352 49.6785 13.16 49.7585 12.92C49.8545 12.664 49.9025 12.36 49.9025 12.008C49.9185 11.64 49.9265 11.232 49.9265 10.784C49.9265 10.224 49.9185 9.784 49.9025 9.464C49.9025 9.128 49.8625 8.872 49.7825 8.696C49.7185 8.52 49.5985 8.408 49.4225 8.36C49.2625 8.312 49.0145 8.288 48.6785 8.288C48.0225 8.288 47.5025 8.448 47.1185 8.768Z"
                    fill="#EB6060" />
                <path
                    d="M18.711 4.976C19.111 4.992 19.567 5.016 20.079 5.048C20.095 5.144 20.103 5.24 20.103 5.336C20.119 5.432 20.127 5.528 20.127 5.624V5.864C20.079 7.592 20.087 9.296 20.151 10.976C20.215 12.64 20.191 14.328 20.079 16.04C20.079 16.248 20.071 16.456 20.055 16.664C20.055 16.872 19.959 16.992 19.767 17.024H19.479C19.223 17.024 18.959 17.016 18.687 17C18.431 16.968 18.175 16.952 17.919 16.952C17.743 16.952 17.567 16.968 17.391 17C17.231 17.016 17.063 17.024 16.887 17.024C16.775 16.992 16.695 16.928 16.647 16.832C16.615 16.736 16.599 16.624 16.599 16.496C16.599 16.32 16.615 16.176 16.647 16.064C16.679 15.952 16.695 15.816 16.695 15.656C16.311 16.04 15.823 16.368 15.231 16.64C14.655 16.912 14.087 17.048 13.527 17.048C12.903 17.048 12.367 16.832 11.919 16.4C11.487 15.968 11.127 15.432 10.839 14.792C10.551 14.152 10.335 13.456 10.191 12.704C10.063 11.952 9.99897 11.256 9.99897 10.616C9.99897 9.816 10.103 9.08 10.311 8.408C10.519 7.736 10.799 7.16 11.151 6.68C11.519 6.184 11.951 5.8 12.447 5.528C12.943 5.24 13.471 5.088 14.031 5.072C14.319 5.072 14.583 5.08 14.823 5.096C15.079 5.096 15.311 5.136 15.519 5.216C15.727 5.28 15.911 5.392 16.071 5.552C16.231 5.696 16.367 5.904 16.479 6.176C16.463 5.92 16.471 5.704 16.503 5.528C16.551 5.336 16.575 5.144 16.575 4.952C16.575 4.936 16.623 4.928 16.719 4.928C16.831 4.912 16.951 4.912 17.079 4.928C17.207 4.928 17.335 4.928 17.463 4.928C17.591 4.928 17.679 4.928 17.727 4.928C17.999 4.944 18.327 4.96 18.711 4.976ZM13.767 8.768C13.399 9.072 13.175 9.424 13.095 9.824C13.031 10.032 12.991 10.248 12.975 10.472C12.959 10.68 12.951 10.888 12.951 11.096C12.951 11.816 13.135 12.432 13.503 12.944C13.887 13.44 14.415 13.688 15.087 13.688C15.487 13.688 15.783 13.624 15.975 13.496C16.183 13.352 16.327 13.16 16.407 12.92C16.503 12.664 16.551 12.36 16.551 12.008C16.567 11.64 16.575 11.232 16.575 10.784C16.575 10.224 16.567 9.784 16.551 9.464C16.551 9.128 16.511 8.872 16.431 8.696C16.367 8.52 16.247 8.408 16.071 8.36C15.911 8.312 15.663 8.288 15.327 8.288C14.671 8.288 14.151 8.448 13.767 8.768ZM58.3406 5.696C58.3406 5.872 58.3486 6.072 58.3646 6.296C58.4446 6.248 58.5406 6.192 58.6526 6.128C58.7806 6.064 58.8846 6 58.9646 5.936C59.3006 5.696 59.6766 5.504 60.0926 5.36C60.5086 5.216 60.9326 5.136 61.3646 5.12C61.8126 5.104 62.2446 5.152 62.6606 5.264C63.0766 5.376 63.4526 5.576 63.7886 5.864C63.9486 6.008 64.0686 6.312 64.1486 6.776C64.2446 7.224 64.3006 7.768 64.3166 8.408C64.3486 9.048 64.3566 9.752 64.3406 10.52C64.3406 11.272 64.3326 12.04 64.3166 12.824C64.3006 13.592 64.2846 14.336 64.2686 15.056C64.2526 15.776 64.2606 16.408 64.2926 16.952C63.7326 17.032 63.2286 17.064 62.7806 17.048C62.3486 17.048 61.8526 17.048 61.2926 17.048C61.2606 16.68 61.2446 16.264 61.2446 15.8C61.2446 15.336 61.2446 14.856 61.2446 14.36C61.2606 13.864 61.2606 13.368 61.2446 12.872C61.2446 12.376 61.2286 11.912 61.1966 11.48C61.1806 11.288 61.1646 11.08 61.1486 10.856C61.1326 10.616 61.1006 10.384 61.0526 10.16C61.0206 9.936 60.9646 9.736 60.8846 9.56C60.8206 9.384 60.7246 9.248 60.5966 9.152C60.5806 9.136 60.5646 9.128 60.5486 9.128C60.5326 9.128 60.5166 9.12 60.5006 9.104C60.3726 9.04 60.1806 8.992 59.9246 8.96C59.6846 8.912 59.4446 8.928 59.2046 9.008C58.9646 9.072 58.7486 9.216 58.5566 9.44C58.3646 9.648 58.2526 9.968 58.2206 10.4C58.1886 10.96 58.1806 11.512 58.1966 12.056C58.2126 12.584 58.2286 13.12 58.2446 13.664C58.2766 14.192 58.2926 14.72 58.2926 15.248C58.2926 15.776 58.2606 16.304 58.1966 16.832V16.928C57.9246 17.008 57.6846 17.056 57.4766 17.072C57.2846 17.088 57.0846 17.088 56.8766 17.072C56.6686 17.072 56.4366 17.064 56.1806 17.048C55.9246 17.032 55.6046 17.04 55.2206 17.072C55.2206 15.104 55.1966 13.136 55.1486 11.168C55.1166 9.2 55.1326 7.16 55.1966 5.048C55.3886 5.064 55.5486 5.08 55.6766 5.096C55.8046 5.096 55.9246 5.096 56.0366 5.096C56.1486 5.096 56.2686 5.096 56.3966 5.096C56.5246 5.08 56.6846 5.064 56.8766 5.048C56.9406 5.048 57.0526 5.04 57.2126 5.024C57.3726 4.992 57.5326 4.968 57.6926 4.952C57.8526 4.936 57.9966 4.936 58.1246 4.952C58.2526 4.952 58.3166 4.976 58.3166 5.024C58.3486 5.296 58.3566 5.52 58.3406 5.696Z"
                    fill="#6077EB" />
                <path
                    d="M24.989 5.696C24.989 5.872 24.997 6.072 25.013 6.296C25.093 6.248 25.189 6.192 25.301 6.128C25.429 6.064 25.533 6 25.613 5.936C25.949 5.696 26.325 5.504 26.741 5.36C27.157 5.216 27.581 5.136 28.013 5.12C28.461 5.104 28.893 5.152 29.309 5.264C29.725 5.376 30.101 5.576 30.437 5.864C30.597 6.008 30.717 6.312 30.797 6.776C30.893 7.224 30.949 7.768 30.965 8.408C30.997 9.048 31.005 9.752 30.989 10.52C30.989 11.272 30.981 12.04 30.965 12.824C30.949 13.592 30.933 14.336 30.917 15.056C30.901 15.776 30.909 16.408 30.941 16.952C30.381 17.032 29.877 17.064 29.429 17.048C28.997 17.048 28.501 17.048 27.941 17.048C27.909 16.68 27.893 16.264 27.893 15.8C27.893 15.336 27.893 14.856 27.893 14.36C27.909 13.864 27.909 13.368 27.893 12.872C27.893 12.376 27.877 11.912 27.845 11.48C27.829 11.288 27.813 11.08 27.797 10.856C27.781 10.616 27.749 10.384 27.701 10.16C27.669 9.936 27.613 9.736 27.533 9.56C27.469 9.384 27.373 9.248 27.245 9.152C27.229 9.136 27.213 9.128 27.197 9.128C27.181 9.128 27.165 9.12 27.149 9.104C27.021 9.04 26.829 8.992 26.573 8.96C26.333 8.912 26.093 8.928 25.853 9.008C25.613 9.072 25.397 9.216 25.205 9.44C25.013 9.648 24.901 9.968 24.869 10.4C24.837 10.96 24.829 11.512 24.845 12.056C24.861 12.584 24.877 13.12 24.893 13.664C24.925 14.192 24.941 14.72 24.941 15.248C24.941 15.776 24.909 16.304 24.845 16.832V16.928C24.573 17.008 24.333 17.056 24.125 17.072C23.933 17.088 23.733 17.088 23.525 17.072C23.317 17.072 23.085 17.064 22.829 17.048C22.573 17.032 22.253 17.04 21.869 17.072C21.869 15.104 21.845 13.136 21.797 11.168C21.765 9.2 21.781 7.16 21.845 5.048C22.037 5.064 22.197 5.08 22.325 5.096C22.453 5.096 22.573 5.096 22.685 5.096C22.797 5.096 22.917 5.096 23.045 5.096C23.173 5.08 23.333 5.064 23.525 5.048C23.589 5.048 23.701 5.04 23.861 5.024C24.021 4.992 24.181 4.968 24.341 4.952C24.501 4.936 24.645 4.936 24.773 4.952C24.901 4.952 24.965 4.976 24.965 5.024C24.997 5.296 25.005 5.52 24.989 5.696ZM69.1453 5.696C69.1453 5.872 69.1533 6.072 69.1693 6.296C69.2493 6.248 69.3453 6.192 69.4573 6.128C69.5853 6.064 69.6893 6 69.7693 5.936C70.1053 5.696 70.4813 5.504 70.8973 5.36C71.3133 5.216 71.7373 5.136 72.1693 5.12C72.6173 5.104 73.0493 5.152 73.4653 5.264C73.8813 5.376 74.2573 5.576 74.5933 5.864C74.7533 6.008 74.8733 6.312 74.9533 6.776C75.0493 7.224 75.1053 7.768 75.1213 8.408C75.1533 9.048 75.1613 9.752 75.1453 10.52C75.1453 11.272 75.1373 12.04 75.1213 12.824C75.1053 13.592 75.0893 14.336 75.0733 15.056C75.0573 15.776 75.0653 16.408 75.0973 16.952C74.5373 17.032 74.0333 17.064 73.5853 17.048C73.1533 17.048 72.6573 17.048 72.0973 17.048C72.0653 16.68 72.0493 16.264 72.0493 15.8C72.0493 15.336 72.0493 14.856 72.0493 14.36C72.0653 13.864 72.0653 13.368 72.0493 12.872C72.0493 12.376 72.0333 11.912 72.0013 11.48C71.9853 11.288 71.9693 11.08 71.9533 10.856C71.9373 10.616 71.9053 10.384 71.8573 10.16C71.8253 9.936 71.7693 9.736 71.6893 9.56C71.6253 9.384 71.5293 9.248 71.4013 9.152C71.3853 9.136 71.3693 9.128 71.3533 9.128C71.3373 9.128 71.3213 9.12 71.3053 9.104C71.1773 9.04 70.9853 8.992 70.7293 8.96C70.4893 8.912 70.2493 8.928 70.0093 9.008C69.7693 9.072 69.5533 9.216 69.3613 9.44C69.1693 9.648 69.0573 9.968 69.0253 10.4C68.9933 10.96 68.9853 11.512 69.0013 12.056C69.0173 12.584 69.0333 13.12 69.0493 13.664C69.0813 14.192 69.0973 14.72 69.0973 15.248C69.0973 15.776 69.0653 16.304 69.0013 16.832V16.928C68.7293 17.008 68.4893 17.056 68.2813 17.072C68.0893 17.088 67.8893 17.088 67.6813 17.072C67.4733 17.072 67.2413 17.064 66.9853 17.048C66.7293 17.032 66.4093 17.04 66.0253 17.072C66.0253 15.104 66.0013 13.136 65.9533 11.168C65.9213 9.2 65.9373 7.16 66.0013 5.048C66.1933 5.064 66.3533 5.08 66.4813 5.096C66.6093 5.096 66.7293 5.096 66.8413 5.096C66.9533 5.096 67.0733 5.096 67.2013 5.096C67.3293 5.08 67.4893 5.064 67.6813 5.048C67.7453 5.048 67.8573 5.04 68.0173 5.024C68.1773 4.992 68.3373 4.968 68.4973 4.952C68.6573 4.936 68.8013 4.936 68.9293 4.952C69.0573 4.952 69.1213 4.976 69.1213 5.024C69.1533 5.296 69.1613 5.52 69.1453 5.696Z"
                    fill="#EBC160" />
                <path
                    d="M35.4337 0.079999C35.6577 0.0959988 35.7697 0.111999 35.7697 0.128V0.391999C35.7857 0.711999 35.7937 0.959999 35.7937 1.136C35.8097 1.296 35.8177 1.448 35.8177 1.592C35.8337 1.72 35.8417 1.864 35.8417 2.024C35.8577 2.168 35.8657 2.384 35.8657 2.672C35.8657 2.944 35.8657 3.312 35.8657 3.776C35.8657 4.24 35.8577 4.848 35.8417 5.6C35.8737 5.456 36.0497 5.328 36.3697 5.216C36.6897 5.104 37.0817 5.032 37.5457 5C38.0097 4.952 38.4977 4.952 39.0097 5C39.5377 5.032 40.0177 5.128 40.4497 5.288C40.8017 5.416 41.0977 5.64 41.3377 5.96C41.5937 6.264 41.7937 6.64 41.9377 7.088C42.0977 7.52 42.2097 8 42.2737 8.528C42.3537 9.056 42.3937 9.6 42.3937 10.16C42.3617 10.96 42.3057 11.752 42.2257 12.536C42.1457 13.32 41.9697 14.032 41.6977 14.672C41.4417 15.296 41.0497 15.816 40.5217 16.232C39.9937 16.632 39.2737 16.864 38.3617 16.928C37.9137 16.992 37.4897 16.96 37.0897 16.832C36.6897 16.688 36.3697 16.376 36.1297 15.896C36.0817 15.8 36.0337 15.776 35.9857 15.824C35.9537 15.856 35.9217 15.912 35.8897 15.992C35.8897 16.168 35.8817 16.304 35.8657 16.4C35.8657 16.496 35.8657 16.624 35.8657 16.784C35.8657 16.864 35.8577 16.92 35.8417 16.952C35.3617 17.016 34.8257 17.032 34.2337 17C33.6417 16.984 33.0977 16.976 32.6017 16.976C32.5697 15.824 32.5537 14.632 32.5537 13.4C32.5697 12.152 32.5857 10.888 32.6017 9.608C32.6337 8.312 32.6657 7 32.6977 5.672C32.7297 4.344 32.7457 3.016 32.7457 1.688V0.103999C33.0017 0.0559993 33.3057 0.0319996 33.6577 0.0319996C34.0097 0.0159998 34.3377 0.0159998 34.6417 0.0319996C34.9617 0.0319996 35.2257 0.0479994 35.4337 0.079999ZM39.6337 10.136C39.6177 9.896 39.5697 9.664 39.4897 9.44C39.4097 8.88 39.1697 8.456 38.7697 8.168C38.3857 7.88 37.8657 7.736 37.2097 7.736C36.8737 7.736 36.6017 7.768 36.3937 7.832C36.2017 7.88 36.0577 8 35.9617 8.192C35.8657 8.384 35.8017 8.664 35.7697 9.032C35.7537 9.384 35.7457 9.872 35.7457 10.496C35.7457 11.008 35.7537 11.48 35.7697 11.912C35.8017 12.328 35.8737 12.688 35.9857 12.992C36.1137 13.296 36.2897 13.536 36.5137 13.712C36.7377 13.888 37.0577 13.976 37.4737 13.976C37.8097 13.976 38.1137 13.888 38.3857 13.712C38.6577 13.536 38.8897 13.304 39.0817 13.016C39.2737 12.712 39.4177 12.376 39.5137 12.008C39.6097 11.624 39.6577 11.232 39.6577 10.832C39.6577 10.608 39.6497 10.376 39.6337 10.136ZM76.782 6.776C76.878 6.472 76.95 6.232 76.998 6.056C77.11 5.816 77.286 5.608 77.526 5.432C77.782 5.256 78.07 5.112 78.39 5C78.726 4.872 79.078 4.784 79.446 4.736C79.83 4.688 80.214 4.664 80.598 4.664C80.918 4.696 81.222 4.704 81.51 4.688C81.814 4.656 82.134 4.656 82.47 4.688C82.982 4.72 83.47 4.824 83.934 5C84.398 5.16 84.798 5.4 85.134 5.72C85.358 5.864 85.534 6.096 85.662 6.416C85.79 6.736 85.886 7.112 85.95 7.544C86.014 7.96 86.054 8.424 86.07 8.936C86.086 9.432 86.102 9.944 86.118 10.472C86.102 10.936 86.078 11.464 86.046 12.056C86.03 12.648 85.99 13.216 85.926 13.76C85.878 14.304 85.806 14.792 85.71 15.224C85.63 15.656 85.51 15.952 85.35 16.112C85.078 16.496 84.718 16.768 84.27 16.928C83.838 17.088 83.366 17.184 82.854 17.216C82.342 17.264 81.814 17.264 81.27 17.216C80.726 17.184 80.23 17.168 79.782 17.168C78.966 17.024 78.278 16.672 77.718 16.112C77.286 15.728 76.99 15.248 76.83 14.672C76.67 14.096 76.574 13.496 76.542 12.872C76.51 12.232 76.502 11.592 76.518 10.952C76.55 10.312 76.542 9.728 76.494 9.2C76.494 8.912 76.502 8.632 76.518 8.36C76.534 8.072 76.566 7.776 76.614 7.472C76.63 7.296 76.686 7.064 76.782 6.776ZM80.814 8.36C80.478 8.456 80.206 8.632 79.998 8.888C79.902 8.952 79.83 9.112 79.782 9.368C79.718 9.88 79.686 10.392 79.686 10.904C79.686 11.4 79.67 11.928 79.638 12.488C79.622 12.856 79.718 13.144 79.926 13.352C80.134 13.544 80.382 13.68 80.67 13.76C80.974 13.824 81.286 13.84 81.606 13.808C81.926 13.76 82.19 13.68 82.398 13.568C82.67 13.44 82.854 13.176 82.95 12.776C83.014 12.264 83.062 11.752 83.094 11.24C83.142 10.712 83.118 10.216 83.022 9.752C82.942 9.192 82.71 8.784 82.326 8.528C81.942 8.272 81.438 8.216 80.814 8.36Z"
                    fill="#EB8760" />
            </svg>